<?xml version="1.0" standalone="no"?>
<!DOCTYPE svg PUBLIC "-//W3C//DTD SVG 20010904//EN"
 "http://www.w3.org/TR/2001/REC-SVG-20010904/DTD/svg10.dtd">
<svg version="1.0" xmlns="http://www.w3.org/2000/svg"
 width="1000.000000pt" height="1000.000000pt" viewBox="0 0 1000.000000 1000.000000"
 preserveAspectRatio="xMidYMid meet">
<metadata>
Created by potrace 1.11, written by Peter Selinger 2001-2013
</metadata>
<g transform="translate(0.000000,1000.000000) scale(0.100000,-0.100000)"
fill="#000000" stroke="none">
<path d="M3560 8860 c-55 -30 -1496 -1478 -1513 -1520 -16 -40 -17 -98 -2
-120 6 -8 15 -24 20 -35 17 -32 81 -62 135 -62 26 -1 52 -3 57 -6 5 -3 15 -2
22 3 8 4 27 4 42 0 16 -5 31 -5 33 -1 5 8 53 7 62 -1 3 -4 18 -2 34 2 16 4 31
6 33 4 7 -7 127 -10 127 -3 0 3 19 3 43 -1 23 -3 61 -3 85 1 23 3 42 3 42 -1
0 -4 18 -4 40 0 22 4 40 4 40 -1 0 -5 6 -6 13 -4 25 9 98 12 103 4 2 -5 15 -4
27 0 12 5 31 5 43 1 11 -5 27 -5 34 0 7 4 26 4 41 0 16 -5 31 -5 33 -1 5 8 53
7 62 -1 3 -4 18 -3 33 2 16 4 34 4 41 0 7 -4 25 -4 40 0 15 4 33 4 41 0 7 -5
20 -5 28 -1 9 4 27 6 41 4 14 -2 46 -3 73 -3 58 0 70 0 102 0 14 0 32 0 40 0
8 0 27 0 43 1 15 0 36 -1 47 -1 11 -1 25 -1 30 -1 6 0 39 0 75 0 103 0 124 1
128 6 2 2 14 0 26 -5 13 -4 29 -5 36 0 7 4 26 4 41 0 16 -5 31 -5 33 -1 5 8
53 7 62 -1 3 -4 18 -3 33 2 16 4 34 4 41 0 7 -4 25 -4 40 0 15 4 33 4 41 0 7
-5 20 -5 28 -2 14 7 36 8 51 3 15 -5 120 -5 120 0 0 3 19 3 43 0 23 -4 61 -4
85 -1 23 4 42 3 42 0 0 -4 18 -4 40 0 22 4 40 4 40 -1 0 -5 6 -6 13 -4 25 9
98 12 103 4 2 -5 15 -4 27 0 12 5 31 5 43 1 11 -5 27 -5 34 0 7 4 26 4 41 0
16 -5 31 -5 33 -1 5 8 53 7 62 -1 3 -4 18 -3 33 2 16 4 34 4 41 0 7 -4 25 -4
40 0 15 4 33 4 41 0 7 -5 20 -5 28 -1 9 4 27 6 41 4 14 -2 46 -3 73 -3 58 0
70 0 102 0 14 0 32 0 40 0 8 0 27 0 43 1 15 0 36 -1 47 -1 11 -1 25 -1 30 -1
6 0 39 0 75 0 103 0 124 1 128 6 2 2 14 0 26 -5 13 -4 29 -5 36 0 7 4 26 4 41
0 16 -5 31 -5 33 -1 5 8 53 7 62 -1 3 -4 18 -3 33 2 16 4 34 4 41 0 7 -4 25
-4 40 0 15 4 33 4 41 0 7 -5 20 -5 28 -2 14 7 36 8 51 3 15 -5 120 -5 120 0 0
3 19 3 43 0 23 -4 61 -4 85 -1 23 4 42 3 42 0 0 -4 18 -4 40 0 22 4 40 4 40
-1 0 -5 6 -6 13 -4 25 9 98 12 103 4 2 -5 15 -4 27 0 12 5 31 5 43 1 11 -5 27
-5 34 0 7 4 26 4 41 0 16 -5 31 -5 33 -1 5 8 53 7 62 -1 3 -4 18 -3 33 2 16 4
34 4 41 0 7 -4 25 -4 40 0 15 4 33 4 41 0 7 -5 20 -5 28 -1 9 4 27 6 41 4 14
-2 46 -3 73 -3 58 0 70 0 102 0 14 0 32 0 40 0 8 0 27 0 43 1 15 0 36 -1 47
-1 11 -1 27 -1 35 -1 77 2 147 2 155 1 6 -1 12 -1 15 0 15 6 62 5 66 -2 3 -4
15 -4 27 1 12 5 31 5 42 1 11 -4 26 -5 32 -3 20 8 103 9 103 2 0 -4 15 -3 34
1 19 4 40 4 47 0 7 -5 22 -5 33 0 12 4 31 4 43 -1 12 -4 25 -4 28 1 3 5 18 5
35 0 17 -5 32 -5 35 0 3 5 12 7 20 3 9 -3 36 -2 62 2 47 7 57 16 795 754 488
487 752 759 762 782 31 74 -1 160 -74 197 l-44 22 -3121 0 c-3051 -1 -3121 -1
-3155 -20z m685 -140 c17 -1 51 -1 78 -1 26 0 54 0 62 0 8 0 35 0 60 0 25 0
52 0 60 0 8 0 35 0 60 0 25 0 52 0 60 0 8 0 35 0 60 0 25 0 52 0 60 0 8 0 35
0 60 0 25 0 52 0 60 0 8 0 35 0 60 0 25 0 52 0 60 0 8 0 35 0 60 0 25 0 52 0
60 0 8 0 35 0 60 0 25 0 52 0 60 0 8 0 35 0 60 0 25 0 52 0 60 0 8 0 35 0 60
0 25 0 52 0 60 0 8 0 35 0 60 0 25 0 52 0 60 0 8 0 35 0 60 0 25 0 52 0 60 0
8 0 35 0 60 0 25 0 52 0 60 0 8 0 35 0 60 0 25 0 52 0 60 0 8 0 35 0 60 0 25
0 52 0 60 0 8 0 35 0 60 0 25 0 52 0 60 0 8 0 34 0 58 1 23 0 84 -1 135 -2 50
-2 92 -1 92 2 0 3 21 4 47 3 79 -3 95 -3 176 -3 43 1 82 -2 87 -5 6 -3 10 -3
10 2 0 4 21 7 47 6 79 -3 95 -3 176 -3 43 1 82 -2 87 -5 6 -3 10 -3 10 2 0 4
21 7 47 6 79 -3 95 -3 176 -3 43 1 82 -2 87 -5 6 -3 10 -3 10 2 0 4 21 7 47 6
27 -1 59 -2 73 -3 26 0 208 -1 225 -1 112 3 157 3 160 -1 3 -2 30 -1 60 2 31
3 58 3 60 0 2 -3 29 -3 60 0 31 3 58 3 60 0 2 -3 29 -3 60 0 31 3 58 3 60 0 2
-3 29 -3 60 0 31 3 58 3 60 0 2 -3 29 -3 60 0 31 3 58 3 60 0 2 -3 29 -3 60 0
31 3 58 3 60 0 2 -3 29 -3 60 0 31 3 58 3 60 0 2 -3 29 -3 60 0 31 3 58 3 60
0 2 -3 29 -3 59 0 31 3 61 3 66 0 5 -3 31 -3 57 0 27 3 72 3 101 -1 29 -3 55
-2 57 1 2 3 29 3 60 0 31 -3 58 -3 60 0 2 3 29 3 60 0 31 -3 58 -3 60 0 2 3
29 3 60 0 31 -3 58 -3 60 0 2 3 29 3 59 0 31 -3 59 -3 63 0 5 3 25 3 46 0 l38
-5 -717 -717 -716 -716 -382 -1 c-209 0 -385 -1 -391 -2 -5 -1 -14 0 -20 1
-12 2 -938 2 -945 -1 -3 -1 -9 0 -15 1 -12 2 -938 2 -945 -1 -3 -1 -9 0 -15 1
-12 2 -938 2 -945 -1 -3 -1 -9 0 -15 1 -12 2 -938 2 -945 -1 -3 -1 -9 0 -15 1
-12 2 -938 2 -945 -1 -3 -1 -9 0 -15 1 -5 1 -138 2 -294 2 l-283 -1 28 30 c16
17 339 341 718 720 l690 690 53 -2 c29 -1 55 -1 57 2 4 3 397 3 501 -1z"/>
<path d="M2166 6876 c-92 -17 -149 -108 -126 -198 10 -38 91 -123 743 -776
403 -403 746 -742 764 -753 29 -18 72 -32 98 -31 20 1 233 2 303 2 40 0 77 2
82 5 5 3 11 1 14 -4 4 -6 18 -6 35 -1 16 4 32 6 35 3 3 -3 38 -4 78 -3 40 1
96 1 123 1 28 0 86 0 130 0 44 1 91 0 105 -1 14 -1 30 -2 35 -2 178 2 264 2
323 2 40 0 77 2 82 5 5 3 11 1 14 -4 4 -6 18 -6 35 -1 16 4 32 6 35 3 3 -3 38
-4 78 -3 40 1 96 1 123 1 28 0 86 0 130 0 44 1 91 0 105 -1 14 -1 30 -2 35 -2
178 2 264 2 323 2 40 0 77 2 82 5 5 3 11 1 14 -4 4 -6 18 -6 35 -1 16 4 32 6
35 3 3 -3 38 -4 78 -3 75 1 126 1 224 0 31 -1 70 4 88 11 19 8 328 309 777
758 664 663 748 751 758 789 26 93 -30 179 -129 199 -17 3 -150 6 -230 4 -30
-1 -86 -1 -125 -1 -157 1 -193 1 -251 1 -33 0 -65 -1 -70 -2 -5 -1 -12 -1 -16
0 -6 2 -184 1 -250 0 -7 0 -56 1 -108 1 -52 1 -99 1 -105 0 -5 -1 -14 -2 -20
-1 -8 2 -192 1 -250 0 -12 0 -723 0 -745 0 -28 1 -195 1 -210 0 -8 0 -58 1
-110 1 -52 1 -99 1 -105 0 -5 -1 -13 -2 -17 -1 -6 2 -184 1 -250 0 -7 0 -56 1
-108 1 -52 1 -99 1 -105 0 -5 -1 -14 -2 -20 -1 -8 2 -192 1 -250 0 -12 0 -723
0 -745 0 -28 1 -195 1 -210 0 -8 0 -58 1 -110 1 -52 1 -99 1 -105 0 -5 -1 -13
-2 -17 -1 -6 2 -184 1 -250 0 -7 0 -56 1 -108 1 -52 1 -99 1 -105 0 -5 -1 -14
-2 -20 -1 -8 2 -190 1 -250 0 -5 0 -53 1 -105 1 -52 1 -99 1 -105 0 -5 -1 -12
-2 -15 -1 -18 7 -135 5 -174 -3z"/>
<path d="M3679 4886 c-2 -2 -28 -6 -57 -9 -38 -4 -62 -14 -90 -36 -20 -16
-362 -355 -759 -753 -793 -795 -758 -755 -732 -850 23 -88 83 -119 229 -118
71 0 229 -1 245 -1 6 0 33 0 60 0 61 1 185 1 320 0 55 0 106 0 113 0 21 2 200
3 267 2 57 0 104 -1 120 0 16 0 120 0 200 0 6 0 30 0 55 0 25 0 52 0 60 0 8 0
62 0 120 0 322 -2 351 -2 361 5 5 3 9 2 9 -3 0 -4 51 -7 112 -5 62 2 118 3
123 3 6 0 39 0 75 0 79 -1 209 -2 269 -1 24 0 47 3 52 6 5 3 9 2 9 -3 0 -4 51
-7 112 -5 62 2 118 3 123 3 6 0 39 0 75 0 79 -1 209 -2 269 -1 24 0 47 3 52 6
5 3 9 2 9 -3 0 -4 51 -7 112 -5 62 2 118 3 123 3 6 0 39 0 75 0 79 -1 209 -2
269 -1 24 0 47 3 52 6 5 3 9 2 9 -3 0 -4 51 -7 112 -5 62 1 156 2 208 2 52 -1
106 -1 120 0 14 1 32 2 40 1 8 0 53 0 100 0 47 0 90 0 95 0 6 0 30 0 55 0 25
0 52 0 60 0 8 0 71 0 140 0 69 0 132 0 140 0 8 0 71 0 140 0 69 -1 161 -1 205
-1 44 0 100 0 125 1 25 0 52 1 60 0 126 -5 176 11 218 68 28 38 35 112 14 155
-20 43 -1468 1492 -1514 1517 -21 11 -38 18 -38 16 0 -3 -18 -1 -40 3 -22 4
-40 4 -40 -1 0 -5 -6 -6 -14 -3 -21 8 -106 10 -106 2 0 -4 -6 -5 -14 -2 -21 8
-106 10 -106 2 0 -4 -7 -5 -15 -2 -22 9 -105 10 -105 2 0 -4 -6 -5 -14 -2 -21
8 -106 10 -106 2 0 -4 -6 -5 -14 -2 -21 8 -106 10 -106 2 0 -4 -6 -5 -14 -2
-23 9 -106 10 -106 1 0 -5 -5 -5 -12 -1 -7 4 -33 7 -58 5 -51 -2 -49 -2 -112
0 -27 1 -51 0 -54 -4 -3 -3 -12 -3 -19 -1 -20 8 -105 10 -105 2 0 -4 -12 -3
-28 1 -15 5 -37 5 -49 0 -12 -4 -24 -5 -27 -1 -2 4 -24 6 -48 4 -24 -2 -49 -3
-55 -3 -7 1 -33 1 -58 1 -25 0 -52 0 -60 0 -8 0 -35 0 -60 0 -25 0 -52 0 -60
0 -8 0 -35 0 -60 0 -25 0 -53 0 -62 0 -138 1 -220 1 -228 0 -6 -1 -14 -1 -20
0 -5 1 -30 1 -55 1 -25 -1 -51 -1 -57 -1 -7 0 -33 0 -58 0 -25 0 -53 0 -62 0
-10 0 -38 0 -63 0 -25 0 -51 -1 -57 0 -7 0 -33 0 -58 0 -25 0 -52 0 -60 0 -8
0 -35 0 -60 0 -71 0 -77 0 -128 1 -27 1 -51 -2 -54 -5 -3 -3 -11 -1 -18 4 -7
5 -14 8 -16 6z"/>
<path d="M1595 2876 c-35 -9 -129 -99 -796 -765 -416 -416 -757 -763 -758
-771 0 -8 -2 -33 -5 -55 -6 -64 23 -113 86 -146 36 -19 101 -19 3158 -19 3075
0 3121 0 3158 20 57 29 1522 1503 1523 1532 1 12 2 37 4 53 2 33 -11 69 -35
98 -17 21 -90 61 -90 50 0 -4 -5 -2 -10 3 -6 6 -33 8 -65 4 -30 -3 -61 -2 -70
2 -9 6 -15 5 -15 -2 0 -6 -5 -8 -11 -4 -11 7 -54 7 -167 2 -28 -2 -52 -1 -52
2 0 5 -109 2 -170 -3 -14 -1 -35 1 -47 5 -12 4 -25 3 -28 -3 -4 -5 -11 -6 -17
-3 -10 6 -80 7 -143 1 -16 -1 -40 1 -52 5 -12 4 -25 3 -28 -2 -3 -5 -16 -6
-28 -1 -12 4 -35 4 -52 1 -16 -3 -40 -3 -52 1 -12 5 -25 4 -28 -1 -3 -5 -16
-6 -28 -1 -12 4 -35 4 -52 1 -16 -3 -40 -3 -52 1 -12 5 -25 4 -28 -1 -3 -5
-16 -6 -28 -1 -12 4 -35 4 -52 1 -16 -3 -40 -3 -52 1 -13 5 -25 4 -28 -2 -4
-5 -11 -6 -17 -3 -10 6 -80 7 -143 1 -16 -1 -40 1 -52 5 -12 4 -25 3 -28 -3
-4 -5 -11 -6 -17 -3 -10 7 -54 7 -166 2 -28 -2 -52 -1 -52 2 0 5 -109 2 -170
-3 -14 -1 -35 1 -47 5 -12 4 -25 3 -28 -3 -4 -5 -11 -6 -17 -3 -10 7 -54 7
-166 2 -28 -2 -52 -1 -52 2 0 3 -30 4 -67 2 -115 -4 -137 -4 -171 1 -18 2 -35
0 -38 -4 -3 -5 -10 -7 -15 -4 -14 9 -90 12 -95 3 -3 -4 -15 -3 -28 2 -13 5
-26 6 -29 4 -9 -9 -71 -10 -94 -2 -13 4 -25 3 -28 -3 -4 -5 -11 -6 -17 -3 -10
7 -54 7 -166 2 -28 -2 -52 -1 -52 2 0 5 -109 2 -170 -3 -14 -1 -35 1 -47 5
-12 4 -25 3 -28 -3 -4 -5 -11 -6 -17 -3 -10 7 -54 7 -166 2 -28 -2 -52 -1 -52
2 0 3 -30 4 -67 2 -115 -4 -137 -4 -171 1 -18 2 -35 1 -38 -4 -2 -4 -15 -5
-27 -1 -20 6 -56 7 -82 2 -25 -5 -52 -4 -72 2 -12 4 -25 3 -28 -2 -3 -5 -16
-6 -28 -1 -12 4 -35 4 -52 1 -16 -3 -40 -3 -52 1 -12 5 -25 4 -28 -1 -3 -5
-16 -6 -28 -1 -12 4 -35 4 -52 1 -16 -3 -40 -3 -52 1 -12 5 -25 4 -28 -1 -3
-5 -16 -6 -28 -1 -12 4 -35 4 -52 1 -16 -3 -40 -3 -52 1 -13 5 -25 4 -28 -2
-4 -5 -11 -6 -17 -3 -10 6 -80 7 -143 1 -16 -1 -40 1 -52 5 -12 4 -25 3 -28
-3 -4 -5 -11 -6 -17 -3 -10 7 -54 7 -166 2 -28 -2 -52 -1 -52 2 0 5 -109 2
-170 -3 -14 -1 -35 1 -47 5 -12 4 -25 3 -28 -3 -4 -5 -11 -6 -17 -3 -10 7 -54
7 -166 2 -28 -2 -52 -1 -52 2 0 5 -109 2 -170 -3 -14 -1 -35 1 -47 5 -12 4
-25 3 -28 -3 -4 -5 -11 -6 -17 -3 -10 6 -75 7 -143 1 -16 -1 -40 1 -52 5 -12
4 -25 3 -28 -2 -3 -5 -15 -6 -27 -1 -12 4 -36 5 -53 1 -17 -4 -39 -4 -50 0
-11 4 -32 4 -47 -1 -15 -4 -28 -4 -30 0 -2 3 -21 2 -43 -3z m184 -158 c44 -1
82 0 85 2 2 3 37 3 78 0 40 -3 91 -3 113 0 22 3 55 2 73 -1 18 -4 32 -3 32 3
0 5 4 7 10 3 5 -3 29 -5 52 -5 24 0 52 1 63 1 33 0 229 0 245 0 85 -2 154 0
161 5 5 3 9 0 9 -6 0 -6 4 -9 8 -6 11 7 47 8 205 6 71 -1 131 1 133 3 3 3 21
1 40 -3 20 -5 34 -4 34 2 0 5 5 6 10 3 6 -4 48 -6 93 -5 45 0 91 1 102 1 120
-1 159 0 166 5 5 3 9 2 9 -3 0 -4 24 -7 52 -5 71 3 167 2 201 -2 15 -2 29 -1
31 3 2 3 37 4 78 1 40 -3 91 -3 113 0 22 3 55 2 73 -1 18 -4 32 -3 32 3 0 5 4
7 10 3 5 -3 29 -5 52 -5 24 0 52 1 63 1 33 0 229 0 245 0 85 -2 154 0 161 5 5
3 9 0 9 -6 0 -6 4 -9 8 -6 11 7 47 8 205 6 71 -1 131 1 133 3 3 3 21 1 40 -3
20 -5 34 -4 34 2 0 5 5 6 10 3 12 -7 229 -9 237 -2 2 3 20 1 39 -3 20 -5 34
-4 34 2 0 5 4 7 10 3 5 -3 29 -5 52 -5 24 0 52 1 63 1 33 0 229 0 245 0 85 -2
154 0 161 5 5 3 9 0 9 -6 0 -6 4 -9 8 -6 11 7 47 8 205 6 71 -1 131 1 133 3 3
3 21 1 40 -3 20 -5 34 -4 34 2 0 5 5 6 10 3 6 -4 48 -6 93 -5 45 0 91 1 102 1
120 -1 159 0 166 5 5 3 9 2 9 -3 0 -4 24 -7 52 -5 71 3 167 2 201 -2 15 -2 29
-1 31 3 2 3 37 4 78 1 40 -3 91 -3 113 0 22 3 55 2 73 -1 18 -4 32 -3 32 3 0
5 4 7 10 3 5 -3 29 -5 52 -5 66 1 75 1 188 1 58 0 110 0 115 0 29 0 155 -4
155 -6 0 -1 -322 -323 -715 -716 l-714 -714 -63 -2 c-35 -1 -79 -2 -98 -3 -19
-1 -93 -1 -163 0 -71 1 -131 -1 -133 -3 -3 -3 -21 -1 -40 3 -20 5 -34 4 -34
-2 0 -5 -4 -7 -10 -3 -5 3 -29 5 -52 5 -24 0 -52 -1 -63 -1 -33 0 -229 0 -245
0 -85 2 -154 0 -161 -5 -5 -3 -9 0 -9 6 0 6 -5 8 -10 5 -9 -6 -63 -7 -155 -3
-5 0 -23 -1 -40 -2 -25 -1 -212 -2 -265 -1 -85 2 -154 0 -161 -5 -5 -3 -9 0
-9 6 0 6 -4 9 -8 6 -11 -7 -47 -8 -205 -6 -71 1 -131 -1 -133 -3 -3 -3 -21 -1
-40 3 -20 5 -34 4 -34 -2 0 -5 -4 -7 -10 -3 -5 3 -29 5 -52 5 -24 0 -52 -1
-63 -1 -33 0 -229 0 -245 0 -85 2 -154 0 -161 -5 -5 -3 -9 0 -9 6 0 6 -4 9 -8
6 -11 -7 -47 -8 -205 -6 -71 1 -131 -1 -133 -3 -3 -3 -21 -1 -40 3 -20 5 -34
4 -34 -2 0 -5 -4 -7 -10 -3 -5 3 -29 5 -52 5 -24 0 -52 -1 -63 -1 -33 0 -229
0 -245 0 -85 2 -154 0 -161 -5 -5 -3 -9 0 -9 6 0 6 -5 8 -10 5 -9 -6 -63 -7
-155 -3 -5 0 -23 -1 -40 -2 -25 -1 -212 -2 -265 -1 -85 2 -154 0 -161 -5 -5
-3 -9 0 -9 6 0 6 -4 9 -8 6 -11 -7 -47 -8 -205 -6 -71 1 -131 -1 -133 -3 -3
-3 -21 -1 -40 3 -20 5 -34 4 -34 -2 0 -5 -4 -7 -10 -3 -5 3 -29 5 -52 5 -24 0
-52 -1 -63 -1 -33 0 -229 0 -245 0 -85 2 -154 0 -161 -5 -5 -3 -9 0 -9 6 0 6
-4 9 -8 6 -11 -7 -47 -8 -205 -6 -71 1 -131 -1 -133 -3 -3 -3 -21 -1 -40 3
-20 5 -34 4 -34 -2 0 -5 -4 -7 -10 -3 -5 3 -29 5 -52 5 -66 -1 -75 -1 -188 -1
-58 0 -109 0 -115 0 -31 0 -155 4 -155 6 0 1 322 324 716 718 698 698 739 736
776 720 4 -2 43 -4 87 -5z"/>
</g>
</svg>
