<?xml version="1.0" encoding="utf-8"?>
<svg viewBox="0 0 125 97" version="1.1" xmlns:xlink="http://www.w3.org/1999/xlink" xmlns="http://www.w3.org/2000/svg">
  <defs>
    <rect width="125" height="97" id="slice_1" />
    <clipPath id="clip_1">
      <use xlink:href="#slice_1" clip-rule="evenodd" />
    </clipPath>
  </defs>
  <g id="Logo" clip-path="url(#clip_1)">
    <use xlink:href="#slice_1" stroke="none" fill="none" />
    <g id="Skayo-Logo" transform="translate(0 1)">
      <g id="Bottom" transform="translate(0 75)">
        <path d="M20.4138 0L97.5882 0Q97.625 0 97.6617 0.00270683Q97.6984 0.00541367 97.7348 0.0108127Q97.7712 0.0162117 97.8071 0.0242736Q97.843 0.0323355 97.8782 0.0430166Q97.9134 0.0536977 97.9477 0.0669402Q97.9821 0.0801826 98.0153 0.0959147Q98.0486 0.111647 98.0806 0.129783Q98.1126 0.147919 98.1432 0.168362Q98.1738 0.188804 98.2028 0.211442Q98.2318 0.23408 98.2591 0.25879Q98.2864 0.2835 98.3117 0.310149Q98.3371 0.336798 98.3604 0.365241Q98.3838 0.393684 98.405 0.423768Q98.4261 0.453851 98.4451 0.485411Q98.464 0.516972 98.4805 0.549838Q98.4971 0.582705 98.5111 0.616699Q98.5252 0.650694 98.5368 0.685632Q98.5483 0.72057 98.5572 0.756263Q98.5662 0.791955 98.5725 0.828209Q98.5788 0.864463 98.5824 0.901081Q98.586 0.937699 98.5869 0.974483Q98.5878 1.01127 98.586 1.04802Q98.5842 1.08477 98.5797 1.12129Q98.5752 1.15781 98.568 1.1939Q98.5608 1.22998 98.551 1.26545Q98.5412 1.30091 98.5288 1.33555Q98.5164 1.3702 98.5015 1.40384Q98.4866 1.43747 98.4692 1.46993Q98.4519 1.50238 98.4322 1.53346Q98.4125 1.56455 98.3906 1.5941Q98.3687 1.62366 98.3446 1.65152Q98.3206 1.67938 98.2946 1.7054L80.2926 19.7074Q80.1521 19.8479 79.9685 19.924Q79.7849 20 79.5862 20L2.4118 20Q2.375 20 2.33831 19.9973Q2.30161 19.9946 2.26522 19.9892Q2.22882 19.9838 2.19292 19.9757Q2.15702 19.9677 2.1218 19.957Q2.08659 19.9463 2.05226 19.9331Q2.01793 19.9198 1.98467 19.9041Q1.95141 19.8884 1.91939 19.8702Q1.88738 19.8521 1.85678 19.8316Q1.82619 19.8112 1.79718 19.7886Q1.76818 19.7659 1.74091 19.7412Q1.71365 19.7165 1.68828 19.6898Q1.6629 19.6632 1.63956 19.6348Q1.61622 19.6063 1.59503 19.5762Q1.57384 19.5461 1.55493 19.5146Q1.53601 19.483 1.51947 19.4502Q1.50292 19.4173 1.48884 19.3833Q1.47476 19.3493 1.46322 19.3144Q1.45168 19.2794 1.44274 19.2437Q1.4338 19.208 1.42751 19.1718Q1.42122 19.1355 1.41761 19.0989Q1.414 19.0623 1.4131 19.0255Q1.4122 18.9887 1.414 18.952Q1.41581 18.9152 1.42031 18.8787Q1.42482 18.8422 1.43199 18.8061Q1.43917 18.77 1.44899 18.7346Q1.4588 18.6991 1.4712 18.6644Q1.48359 18.6298 1.4985 18.5962Q1.51341 18.5625 1.53076 18.5301Q1.54811 18.4976 1.56779 18.4665Q1.58748 18.4354 1.6094 18.4059Q1.63131 18.3763 1.65535 18.3485Q1.67938 18.3206 1.7054 18.2946L19.7074 0.2926Q19.8479 0.152089 20.0315 0.0760443Q20.2151 0 20.4138 0Z" id="Form" fill="none" stroke="#FFFFFF" stroke-width="2" />
      </g>
      <g id="Lower-Middle" transform="matrix(-1 -8.742278E-08 8.742278E-08 -1 100 70.00002)">
        <path d="M2.4118 0L72.5882 0Q72.625 0 72.6617 0.00270683Q72.6984 0.00541367 72.7348 0.0108127Q72.7712 0.0162117 72.8071 0.0242736Q72.843 0.0323355 72.8782 0.0430166Q72.9134 0.0536977 72.9477 0.0669402Q72.9821 0.0801827 73.0153 0.0959147Q73.0486 0.111647 73.0806 0.129783Q73.1126 0.147919 73.1432 0.168362Q73.1738 0.188804 73.2028 0.211442Q73.2318 0.23408 73.2591 0.25879Q73.2863 0.2835 73.3117 0.310149Q73.3371 0.336798 73.3604 0.365241Q73.3838 0.393684 73.405 0.423768Q73.4261 0.453851 73.4451 0.485411Q73.464 0.516972 73.4805 0.549838Q73.4971 0.582705 73.5112 0.616699Q73.5252 0.650694 73.5368 0.685632Q73.5483 0.72057 73.5573 0.756263Q73.5662 0.791955 73.5725 0.828209Q73.5788 0.864463 73.5824 0.901081Q73.586 0.937699 73.5869 0.974483Q73.5878 1.01127 73.586 1.04802Q73.5842 1.08477 73.5797 1.12129Q73.5752 1.15781 73.568 1.1939Q73.5608 1.22998 73.551 1.26545Q73.5412 1.30091 73.5288 1.33555Q73.5164 1.3702 73.5015 1.40384Q73.4866 1.43747 73.4692 1.46993Q73.4519 1.50238 73.4322 1.53346Q73.4125 1.56455 73.3906 1.5941Q73.3687 1.62366 73.3447 1.65152Q73.3206 1.67938 73.2946 1.7054L55.2926 19.7074Q55.1521 19.8479 54.9685 19.924Q54.7849 20 54.5862 20L20.4138 20Q20.2151 20 20.0315 19.924Q19.8479 19.8479 19.7074 19.7074L1.7054 1.7054Q1.67938 1.67938 1.65535 1.65152Q1.63131 1.62366 1.6094 1.5941Q1.58748 1.56455 1.56779 1.53346Q1.54811 1.50238 1.53076 1.46993Q1.51341 1.43747 1.4985 1.40384Q1.48359 1.3702 1.4712 1.33555Q1.4588 1.30091 1.44899 1.26545Q1.43917 1.22998 1.432 1.1939Q1.42482 1.15781 1.42031 1.12129Q1.41581 1.08477 1.414 1.04802Q1.4122 1.01127 1.4131 0.974483Q1.414 0.937699 1.41761 0.901081Q1.42122 0.864463 1.42751 0.828209Q1.4338 0.791955 1.44274 0.756263Q1.45168 0.72057 1.46322 0.685632Q1.47476 0.650694 1.48884 0.616699Q1.50292 0.582705 1.51947 0.549838Q1.53601 0.516972 1.55493 0.485411Q1.57385 0.453851 1.59503 0.423768Q1.61622 0.393684 1.63956 0.365241Q1.6629 0.336798 1.68828 0.310149Q1.71365 0.2835 1.74091 0.25879Q1.76818 0.23408 1.79718 0.211442Q1.82619 0.188804 1.85678 0.168362Q1.88738 0.147919 1.91939 0.129783Q1.95141 0.111647 1.98467 0.0959147Q2.01793 0.0801827 2.05226 0.0669402Q2.08659 0.0536977 2.1218 0.0430166Q2.15702 0.0323355 2.19292 0.0242736Q2.22882 0.0162117 2.26522 0.0108127Q2.30161 0.00541367 2.33831 0.00270683Q2.375 0 2.4118 0L2.4118 0Z" id="Form" fill="#FFFFFF" stroke="#FFFFFF" stroke-width="2" />
      </g>
      <g id="Upper-Middle" transform="translate(25 25)">
        <path d="M2.4118 0L72.5882 0Q72.625 0 72.6617 0.00270683Q72.6984 0.00541367 72.7348 0.0108127Q72.7712 0.0162117 72.8071 0.0242736Q72.843 0.0323355 72.8782 0.0430166Q72.9134 0.0536977 72.9477 0.0669402Q72.9821 0.0801826 73.0153 0.0959147Q73.0486 0.111647 73.0806 0.129783Q73.1126 0.147919 73.1432 0.168362Q73.1738 0.188804 73.2028 0.211442Q73.2318 0.23408 73.2591 0.25879Q73.2863 0.2835 73.3117 0.310149Q73.3371 0.336798 73.3604 0.365241Q73.3838 0.393684 73.405 0.423768Q73.4262 0.453851 73.4451 0.485411Q73.464 0.516972 73.4805 0.549838Q73.4971 0.582705 73.5112 0.616699Q73.5252 0.650694 73.5368 0.685632Q73.5483 0.72057 73.5573 0.756263Q73.5662 0.791955 73.5725 0.828209Q73.5788 0.864463 73.5824 0.901081Q73.586 0.937699 73.5869 0.974483Q73.5878 1.01127 73.586 1.04802Q73.5842 1.08477 73.5797 1.12129Q73.5752 1.15781 73.568 1.1939Q73.5608 1.22998 73.551 1.26545Q73.5412 1.30091 73.5288 1.33555Q73.5164 1.3702 73.5015 1.40384Q73.4866 1.43747 73.4692 1.46993Q73.4519 1.50238 73.4322 1.53346Q73.4125 1.56455 73.3906 1.5941Q73.3687 1.62366 73.3446 1.65152Q73.3206 1.67938 73.2946 1.7054L55.2926 19.7074Q55.1521 19.8479 54.9685 19.924Q54.7849 20 54.5862 20L20.4138 20Q20.2151 20 20.0315 19.924Q19.8479 19.8479 19.7074 19.7074L1.7054 1.7054Q1.67938 1.67938 1.65535 1.65152Q1.63131 1.62366 1.60939 1.5941Q1.58748 1.56455 1.56779 1.53346Q1.54811 1.50238 1.53076 1.46993Q1.51341 1.43747 1.4985 1.40384Q1.48359 1.3702 1.4712 1.33555Q1.4588 1.30091 1.44899 1.26545Q1.43917 1.22998 1.43199 1.1939Q1.42482 1.15781 1.42031 1.12129Q1.41581 1.08477 1.414 1.04802Q1.4122 1.01127 1.4131 0.974483Q1.414 0.937699 1.41761 0.901081Q1.42122 0.864463 1.42751 0.828209Q1.4338 0.791955 1.44274 0.756263Q1.45168 0.72057 1.46322 0.685632Q1.47476 0.650694 1.48884 0.616699Q1.50292 0.582705 1.51947 0.549838Q1.53601 0.516972 1.55493 0.485411Q1.57384 0.453851 1.59503 0.423768Q1.61622 0.393684 1.63956 0.365241Q1.6629 0.336798 1.68828 0.310149Q1.71365 0.2835 1.74091 0.25879Q1.76818 0.23408 1.79718 0.211442Q1.82619 0.188804 1.85678 0.168362Q1.88738 0.147919 1.91939 0.129783Q1.95141 0.111647 1.98467 0.0959147Q2.01793 0.0801827 2.05226 0.0669402Q2.08659 0.0536977 2.1218 0.0430166Q2.15702 0.0323355 2.19292 0.0242736Q2.22882 0.0162117 2.26522 0.0108127Q2.30161 0.00541367 2.33831 0.00270683Q2.375 0 2.4118 0Z" id="Form" fill="#FFFFFF" stroke="#FFFFFF" stroke-width="2" />
      </g>
      <g id="Top" transform="translate(25 0)">
        <path d="M20.4138 0L97.5882 0Q97.625 0 97.6617 0.00270683Q97.6984 0.00541367 97.7348 0.0108127Q97.7712 0.0162117 97.8071 0.0242736Q97.843 0.0323355 97.8782 0.0430166Q97.9134 0.0536977 97.9477 0.0669402Q97.9821 0.0801826 98.0153 0.0959147Q98.0486 0.111647 98.0806 0.129783Q98.1126 0.147919 98.1432 0.168362Q98.1738 0.188804 98.2028 0.211442Q98.2318 0.23408 98.2591 0.25879Q98.2864 0.2835 98.3117 0.310149Q98.3371 0.336798 98.3604 0.365241Q98.3838 0.393684 98.405 0.423768Q98.4261 0.453851 98.4451 0.485411Q98.464 0.516972 98.4805 0.549838Q98.4971 0.582705 98.5111 0.616699Q98.5252 0.650694 98.5368 0.685632Q98.5483 0.72057 98.5572 0.756263Q98.5662 0.791955 98.5725 0.828209Q98.5788 0.864463 98.5824 0.901081Q98.586 0.937699 98.5869 0.974483Q98.5878 1.01127 98.586 1.04802Q98.5842 1.08477 98.5797 1.12129Q98.5752 1.15781 98.568 1.1939Q98.5608 1.22998 98.551 1.26545Q98.5412 1.30091 98.5288 1.33555Q98.5164 1.3702 98.5015 1.40384Q98.4866 1.43747 98.4692 1.46993Q98.4519 1.50238 98.4322 1.53346Q98.4125 1.56455 98.3906 1.5941Q98.3687 1.62366 98.3446 1.65152Q98.3206 1.67938 98.2946 1.7054L80.2926 19.7074Q80.1521 19.8479 79.9685 19.924Q79.7849 20 79.5862 20L2.4118 20Q2.375 20 2.33831 19.9973Q2.30161 19.9946 2.26522 19.9892Q2.22882 19.9838 2.19292 19.9757Q2.15702 19.9677 2.1218 19.957Q2.08659 19.9463 2.05226 19.9331Q2.01793 19.9198 1.98467 19.9041Q1.95141 19.8884 1.91939 19.8702Q1.88738 19.8521 1.85678 19.8316Q1.82619 19.8112 1.79718 19.7886Q1.76818 19.7659 1.74091 19.7412Q1.71365 19.7165 1.68828 19.6898Q1.6629 19.6632 1.63956 19.6348Q1.61622 19.6063 1.59503 19.5762Q1.57384 19.5461 1.55493 19.5146Q1.53601 19.483 1.51947 19.4502Q1.50292 19.4173 1.48884 19.3833Q1.47476 19.3493 1.46322 19.3144Q1.45168 19.2794 1.44274 19.2437Q1.4338 19.208 1.42751 19.1718Q1.42122 19.1355 1.41761 19.0989Q1.414 19.0623 1.4131 19.0255Q1.4122 18.9887 1.414 18.952Q1.41581 18.9152 1.42031 18.8787Q1.42482 18.8422 1.43199 18.8061Q1.43917 18.77 1.44899 18.7346Q1.4588 18.6991 1.4712 18.6644Q1.48359 18.6298 1.4985 18.5962Q1.51341 18.5625 1.53076 18.5301Q1.54811 18.4976 1.56779 18.4665Q1.58748 18.4354 1.6094 18.4059Q1.63131 18.3763 1.65535 18.3485Q1.67938 18.3206 1.7054 18.2946L19.7074 0.2926Q19.8479 0.152089 20.0315 0.0760443Q20.2151 0 20.4138 0Z" id="Form" fill="none" stroke="#FFFFFF" stroke-width="2" />
      </g>
    </g>
  </g>
</svg>